<?xml version="1.0" encoding="UTF-8" standalone="no"?>
<svg width="322px" height="65px" viewBox="0 0 322 65" version="1.1" xmlns="http://www.w3.org/2000/svg" xmlns:xlink="http://www.w3.org/1999/xlink" xmlns:sketch="http://www.bohemiancoding.com/sketch/ns">
    <!-- Generator: Sketch 3.4.2 (15855) - http://www.bohemiancoding.com/sketch -->
    <title>dark</title>
    <desc>Created with Sketch.</desc>
    <defs></defs>
    <g id="Page-1" stroke="none" stroke-width="1" fill="none" fill-rule="evenodd" sketch:type="MSPage">
        <g id="Artboard-1" sketch:type="MSArtboardGroup" transform="translate(-173.000000, -19.000000)">
            <g id="dark" sketch:type="MSLayerGroup" transform="translate(173.421875, 19.175781)">
                <path d="M0.044,36.85 C0.044,37.03 0.188,37.192 0.386,37.192 L7.712,37.192 C7.91,37.192 8.054,37.03 8.054,36.85 L8.054,35.374 C8.054,35.194 7.91,35.032 7.712,35.032 L2.384,35.032 L2.384,31.882 L6.83,31.882 C7.01,31.882 7.172,31.738 7.172,31.54 L7.172,30.046 C7.172,29.866 7.01,29.704 6.83,29.704 L2.384,29.704 L2.384,26.752 L7.712,26.752 C7.91,26.752 8.054,26.59 8.054,26.41 L8.054,24.934 C8.054,24.754 7.91,24.592 7.712,24.592 L0.386,24.592 C0.188,24.592 0.044,24.754 0.044,24.934 L0.044,36.85 Z M12.28,36.688 C12.136,36.922 12.28,37.192 12.604,37.192 L14.548,37.192 C14.692,37.192 14.8,37.102 14.854,37.03 L17.392,32.908 L17.446,32.908 L20.02,37.03 C20.056,37.102 20.182,37.192 20.326,37.192 L22.27,37.192 C22.576,37.192 22.72,36.94 22.576,36.688 L18.832,30.73 L22.45,25.096 C22.594,24.862 22.45,24.592 22.144,24.592 L20.056,24.592 C19.912,24.592 19.804,24.682 19.768,24.754 L17.428,28.57 L17.41,28.57 L15.106,24.754 C15.052,24.682 14.962,24.592 14.818,24.592 L12.73,24.592 C12.424,24.592 12.28,24.862 12.424,25.096 L16.024,30.73 L12.28,36.688 Z M27.504,36.85 C27.504,37.03 27.648,37.192 27.846,37.192 L29.502,37.192 C29.682,37.192 29.844,37.03 29.844,36.85 L29.844,32.62 L32.094,32.62 C34.29,32.62 36.108,30.802 36.108,28.57 C36.108,26.392 34.29,24.592 32.076,24.592 L27.846,24.592 C27.648,24.592 27.504,24.754 27.504,24.934 L27.504,36.85 Z M29.844,30.424 L29.844,26.806 L31.932,26.806 C32.94,26.806 33.786,27.562 33.786,28.552 C33.786,29.614 32.94,30.424 31.932,30.424 L29.844,30.424 Z M40.91,36.85 C40.91,37.03 41.054,37.192 41.252,37.192 L48.578,37.192 C48.776,37.192 48.92,37.03 48.92,36.85 L48.92,35.374 C48.92,35.194 48.776,35.032 48.578,35.032 L43.25,35.032 L43.25,31.882 L47.696,31.882 C47.876,31.882 48.038,31.738 48.038,31.54 L48.038,30.046 C48.038,29.866 47.876,29.704 47.696,29.704 L43.25,29.704 L43.25,26.752 L48.578,26.752 C48.776,26.752 48.92,26.59 48.92,26.41 L48.92,24.934 C48.92,24.754 48.776,24.592 48.578,24.592 L41.252,24.592 C41.054,24.592 40.91,24.754 40.91,24.934 L40.91,36.85 Z M53.272,30.91 C53.272,34.51 56.17,37.372 59.77,37.372 C61.372,37.372 62.92,36.814 64.144,35.626 C64.27,35.5 64.306,35.266 64.162,35.14 L63.046,33.988 C62.938,33.88 62.74,33.862 62.596,33.988 C61.84,34.6 60.922,35.014 59.842,35.014 C57.538,35.014 55.81,33.106 55.81,30.856 C55.81,28.588 57.52,26.662 59.824,26.662 C60.832,26.662 61.84,27.058 62.596,27.724 C62.74,27.868 62.92,27.868 63.046,27.724 L64.144,26.59 C64.288,26.446 64.288,26.23 64.126,26.086 C62.902,24.988 61.588,24.412 59.77,24.412 C56.17,24.412 53.272,27.31 53.272,30.91 L53.272,30.91 Z M71.194,36.85 C71.194,37.03 71.356,37.192 71.536,37.192 L73.21,37.192 C73.39,37.192 73.552,37.03 73.552,36.85 L73.552,26.752 L76.306,26.752 C76.504,26.752 76.648,26.59 76.648,26.41 L76.648,24.934 C76.648,24.754 76.504,24.592 76.306,24.592 L68.44,24.592 C68.242,24.592 68.098,24.754 68.098,24.934 L68.098,26.41 C68.098,26.59 68.242,26.752 68.44,26.752 L71.194,26.752 L71.194,36.85 Z M81.27,36.85 C81.27,37.03 81.414,37.192 81.612,37.192 L88.938,37.192 C89.136,37.192 89.28,37.03 89.28,36.85 L89.28,35.374 C89.28,35.194 89.136,35.032 88.938,35.032 L83.61,35.032 L83.61,31.882 L88.056,31.882 C88.236,31.882 88.398,31.738 88.398,31.54 L88.398,30.046 C88.398,29.866 88.236,29.704 88.056,29.704 L83.61,29.704 L83.61,26.752 L88.938,26.752 C89.136,26.752 89.28,26.59 89.28,26.41 L89.28,24.934 C89.28,24.754 89.136,24.592 88.938,24.592 L81.612,24.592 C81.414,24.592 81.27,24.754 81.27,24.934 L81.27,36.85 Z M94.354,36.85 C94.354,37.03 94.498,37.192 94.678,37.192 L98.944,37.192 C102.418,37.192 105.262,34.366 105.262,30.874 C105.262,27.418 102.418,24.592 98.944,24.592 L94.678,24.592 C94.498,24.592 94.354,24.754 94.354,24.934 L94.354,36.85 Z M96.676,34.996 L96.676,26.77 L98.728,26.77 C101.068,26.77 102.778,28.534 102.778,30.874 C102.778,33.232 101.068,34.996 98.728,34.996 L96.676,34.996 Z" id="EXPECTED" fill="#FFFFFF" sketch:type="MSShapeGroup"></path>
                <path d="M216.638,36.85 C216.638,37.03 216.782,37.192 216.98,37.192 L221.336,37.192 C223.532,37.192 225.26,35.734 225.26,33.718 C225.26,32.062 223.874,31.09 222.92,30.784 C223.766,30.388 224.9,29.308 224.9,27.922 C224.9,26.032 223.244,24.592 221.102,24.592 L216.98,24.592 C216.782,24.592 216.638,24.754 216.638,24.934 L216.638,36.85 Z M218.96,29.884 L218.96,26.734 L220.886,26.734 C221.804,26.734 222.434,27.364 222.434,28.264 C222.434,29.164 221.804,29.884 220.886,29.884 L218.96,29.884 Z M218.96,35.068 L218.96,31.864 L220.922,31.864 C221.858,31.864 222.758,32.53 222.758,33.43 C222.758,34.366 222.038,35.068 221.138,35.068 L218.96,35.068 Z M230.244,36.85 C230.244,37.03 230.388,37.192 230.586,37.192 L237.912,37.192 C238.11,37.192 238.254,37.03 238.254,36.85 L238.254,35.374 C238.254,35.194 238.11,35.032 237.912,35.032 L232.584,35.032 L232.584,31.882 L237.03,31.882 C237.21,31.882 237.372,31.738 237.372,31.54 L237.372,30.046 C237.372,29.866 237.21,29.704 237.03,29.704 L232.584,29.704 L232.584,26.752 L237.912,26.752 C238.11,26.752 238.254,26.59 238.254,26.41 L238.254,24.934 C238.254,24.754 238.11,24.592 237.912,24.592 L230.586,24.592 C230.388,24.592 230.244,24.754 230.244,24.934 L230.244,36.85 Z M243.328,36.85 C243.328,37.03 243.49,37.192 243.67,37.192 L245.344,37.192 C245.542,37.192 245.686,37.03 245.686,36.85 L245.686,31.882 L251.554,31.882 L251.554,36.85 C251.554,37.03 251.698,37.192 251.896,37.192 L253.552,37.192 C253.732,37.192 253.894,37.03 253.894,36.85 L253.894,24.934 C253.894,24.754 253.732,24.592 253.552,24.592 L251.896,24.592 C251.698,24.592 251.554,24.754 251.554,24.934 L251.554,29.704 L245.686,29.704 L245.686,24.934 C245.686,24.754 245.542,24.592 245.344,24.592 L243.67,24.592 C243.49,24.592 243.328,24.754 243.328,24.934 L243.328,36.85 Z M258.338,37.192 L259.904,37.192 C260.192,37.192 260.354,37.012 260.426,36.832 L261.308,34.888 L266.69,34.888 L267.572,36.832 C267.698,37.084 267.824,37.192 268.094,37.192 L269.66,37.192 C269.93,37.192 270.074,36.958 269.966,36.724 L264.422,24.61 C264.368,24.502 264.296,24.412 264.116,24.412 L263.936,24.412 C263.774,24.412 263.684,24.502 263.63,24.61 L258.032,36.724 C257.924,36.958 258.068,37.192 258.338,37.192 L258.338,37.192 Z M262.19,32.89 L263.954,28.93 L264.008,28.93 L265.808,32.89 L262.19,32.89 Z M277.146,37.174 C277.2,37.282 277.29,37.372 277.452,37.372 L277.632,37.372 C277.794,37.372 277.884,37.282 277.938,37.174 L283.518,25.06 C283.626,24.826 283.482,24.592 283.212,24.592 L281.376,24.592 C281.214,24.592 281.106,24.7 281.07,24.79 L277.614,32.53 L277.488,32.53 L274.032,24.79 C273.996,24.7 273.888,24.592 273.726,24.592 L271.89,24.592 C271.62,24.592 271.476,24.826 271.584,25.06 L277.146,37.174 Z M287.656,36.85 C287.656,37.03 287.818,37.192 287.998,37.192 L289.672,37.192 C289.852,37.192 290.014,37.03 290.014,36.85 L290.014,24.934 C290.014,24.754 289.852,24.592 289.672,24.592 L287.998,24.592 C287.818,24.592 287.656,24.754 287.656,24.934 L287.656,36.85 Z M294.89,30.91 C294.89,34.51 297.752,37.372 301.352,37.372 C304.952,37.372 307.832,34.51 307.832,30.91 C307.832,27.31 304.952,24.412 301.352,24.412 C297.752,24.412 294.89,27.31 294.89,30.91 L294.89,30.91 Z M297.23,30.91 C297.23,28.642 299.084,26.752 301.352,26.752 C303.62,26.752 305.492,28.642 305.492,30.91 C305.492,33.178 303.62,35.032 301.352,35.032 C299.084,35.032 297.23,33.178 297.23,30.91 L297.23,30.91 Z M311.94,36.85 C311.94,37.03 312.084,37.192 312.282,37.192 L313.938,37.192 C314.118,37.192 314.28,37.03 314.28,36.85 L314.28,32.26 L316.278,32.26 L318.672,37.03 C318.708,37.102 318.798,37.192 318.96,37.192 L320.85,37.192 C321.156,37.192 321.282,36.904 321.156,36.67 L318.69,32.098 C320.256,31.468 321.354,30.118 321.354,28.462 C321.354,26.32 319.59,24.592 317.43,24.592 L312.282,24.592 C312.084,24.592 311.94,24.754 311.94,24.934 L311.94,36.85 Z M314.298,30.334 L314.298,26.752 L317.232,26.752 C318.186,26.752 319.014,27.544 319.014,28.498 C319.014,29.506 318.186,30.334 317.232,30.334 L314.298,30.334 Z" id="BEHAVIOR" fill="#FFFFFF" sketch:type="MSShapeGroup"></path>
                <g id="single-color" transform="translate(122.000000, 0.192000)" fill="#E19D23" sketch:type="MSShapeGroup">
                    <path d="M21.9871709,22.1228664 L33.9681885,14.4393877 C34.3681885,14.2393877 34.5681885,13.8393877 34.5681885,13.4393877 L34.5681885,1.23938769 C34.5681885,0.239387691 33.5681885,-0.360612309 32.5681885,0.239387691 L1.44636462,17.40236 C1.46982212,17.4201782 1.49354542,17.4381092 1.51753396,17.4561503 C2.37540605,18.1013305 3.38477718,18.7483471 4.53720251,19.3531031 C7.83578567,21.0840943 11.6100881,22.1228664 15.8,22.1228664 C18.4464459,22.1228664 20.3293805,22.1228664 21.9871709,22.1228664 Z M1.01511353,46.4301435 L32.5681885,64.4387729 C33.6749878,64.9738083 34.5681877,64.4387741 34.5681885,63.4387729 L34.5681885,50.0393877 C34.5681885,49.6393877 34.3681885,49.2393877 33.9681885,49.0393877 L20.4964423,40.3998983 C19.1822223,40.3998984 17.6751299,40.3998985 15.8000001,40.3998986 C11.6301526,40.3998989 7.87157628,41.625856 4.58342844,43.6710714 C3.43247642,44.3869592 2.42375892,45.1533999 1.5660318,45.9180722 C1.36344594,46.0986796 1.17969448,46.2700583 1.01511353,46.4301435 Z" id="Shape-323-Copy-44"></path>
                    <path d="M54.6880982,22.1228664 L42.6,14.3707165 C42.2,14.1707165 42,13.7707165 42,13.3707165 L42,1.17071647 C42,0.170716471 43,-0.429283529 44,0.370716471 L75.4294329,17.4549905 C74.593763,18.0334157 73.3786737,18.7897185 72.1244536,19.4281533 C68.810094,21.1152594 65.2502613,22.1228664 61.6,22.1228664 C58.8664866,22.1228664 57.5319098,22.1228664 55.7859668,22.1228664 Z M56.2765297,40.3998985 L42.6,49.1707165 C42.2,49.3707165 42,49.7707165 42,50.1707165 L42,63.3707165 C42,64.3707165 43,64.9707165 44,64.3707165 L75.9569815,46.3242667 C75.8311335,46.1861596 75.6919952,46.0399128 75.5395465,45.8868276 C74.7854692,45.129602 73.8730308,44.3698234 72.8013817,43.6594413 C69.7290609,41.6228404 66.0031414,40.3998986 61.6,40.3998986 C59.1499571,40.3998986 57.6935475,40.3998985 56.2765297,40.3998985 Z" id="Shape-322-Copy-44"></path>
                    <path d="M15.8,23.4 C5.94282246,23.4000001 0,18 0,18 L0,45.6 C0,45.6 5.94111347,39.2000008 15.8,39.2 C25.6588865,39.1999992 51.2,39.2 61.6,39.2 C72,39.2 77,45.6 77,45.6 L77,18 C76.8,18.2 70.2,23.4 61.6,23.4 C53,23.4 25.6571775,23.3999999 15.8,23.4 Z" id="Path"></path>
                </g>
            </g>
        </g>
    </g>
</svg>