<?xml version="1.0" encoding="utf-8"?>
<!-- Generator: Adobe Illustrator 16.0.4, SVG Export Plug-In . SVG Version: 6.00 Build 0)  -->
<!DOCTYPE svg PUBLIC "-//W3C//DTD SVG 1.1//EN" "http://www.w3.org/Graphics/SVG/1.1/DTD/svg11.dtd">
<svg version="1.1" id="Layer_1" xmlns="http://www.w3.org/2000/svg" xmlns:xlink="http://www.w3.org/1999/xlink" x="0px" y="0px"
	 width="318px" height="69.75px" viewBox="-67 0 318 69.75" enable-background="new -67 0 318 69.75" xml:space="preserve">
<g id="Bent_Rail_Logo_1_">
	<path fill="#C1272D" d="M250.946,34.876c0.325-3.529-0.757-8.319-4.726-11.541c0.605-1.131,1.066-2.306,1.389-3.509
		c1.493-5.667-0.144-11.749-4.869-18.079C241.927,0.655,240.632,0,239.271,0c-0.126,0-0.258,0.008-0.385,0.02
		c-1.481,0.132-2.816,1.045-3.485,2.38c-0.415,0.824-2.114,1.191-3.613,1.191c-0.265,0-132.065,0.181-132.065,0.181
		c-3.12,0-4.442-0.656-4.756-0.81C94.167,2.21,93.1,1.727,92,1.727c-1.095,0-2.164,0.51-2.962,1.259
		c-0.31,0.153-1.63,0.786-4.767,0.786c0,0-131.802-0.13-132.06-0.13c-1.502,0-3.203-0.393-3.616-1.217
		c-0.665-1.333-2.003-2.26-3.483-2.392c-0.129-0.012-0.262-0.027-0.39-0.027c-1.357,0-2.655,0.651-3.468,1.743
		c-4.723,6.334-6.359,12.414-4.865,18.074c0.32,1.209,0.783,2.384,1.386,3.513c-3.964,3.222-5.047,8.012-4.721,11.541
		c-0.326,3.528,0.757,8.318,4.723,11.532c-0.604,1.129-1.068,2.307-1.388,3.514c-1.495,5.664,0.142,11.747,4.865,18.084
		c0.818,1.091,2.112,1.742,3.468,1.742c0.127,0,0.259-0.007,0.383-0.021c1.487-0.132,2.828-1.045,3.488-2.374
		c0.415-0.826,2.112-1.941,3.61-1.941c0.26,0,132.065-0.854,132.065-0.854c3.137,0,12.333,0,15.454,0
		c0,0,131.814,0.821,132.07,0.821c1.496,0,3.193,0.758,3.605,1.582c0.677,1.35,1.979,2.438,3.48,2.568
		c0.135,0.016,0.263,0.12,0.393,0.12c1.357,0,2.653-0.604,3.469-1.696c4.724-6.333,6.362-12.39,4.867-18.056
		c-0.32-1.205-0.785-2.37-1.387-3.502C250.187,43.182,251.271,38.406,250.946,34.876z M245.096,45.718
		c-0.168,0.125-0.341,0.233-0.526,0.321c0.776,1.229,1.428,2.629,1.84,4.202c1.395,5.282-0.174,11.008-4.661,17.027
		c-0.588,0.782-1.506,1.242-2.478,1.242c-0.088,0-0.18-0.003-0.271-0.013c-1.07-0.097-2.016-0.738-2.494-1.698
		c-0.871-1.742-3.828-2.164-4.714-2.164c-0.323,0-132.069-0.074-132.069-0.074c-3.858,0-11.59,0-15.456,0
		c0,0-131.747,0.118-132.063,0.118c-0.888,0-3.843,0.257-4.717,2c-0.479,0.961-1.422,1.663-2.488,1.759
		c-0.091,0.007-0.183,0.044-0.274,0.044c-0.97,0-1.888-0.447-2.477-1.229c-4.489-6.021-6.056-11.736-4.66-17.018
		c0.414-1.571,1.063-2.974,1.839-4.203c-0.183-0.089-0.357-0.192-0.523-0.316c-4.215-3.167-4.891-8.085-4.605-10.841
		c-0.286-2.758,0.389-7.681,4.603-10.843c0.167-0.128,0.343-0.232,0.526-0.32c-0.775-1.232-1.427-2.63-1.839-4.204
		c-1.396-5.281,0.171-11.009,4.66-17.024c0.587-0.787,1.507-1.246,2.477-1.246c0.091,0,0.183,0.005,0.274,0.014
		c1.068,0.096,2.012,0.737,2.488,1.699c0.874,1.742,3.834,1.88,4.723,1.88c0.312,0,132.058-0.144,132.058-0.144
		c3.867,0,5.282-0.741,5.515-0.891c0.579-0.597,1.38-0.91,2.218-0.91c0.836,0,1.639,0.304,2.218,0.896
		c0.234,0.15,1.646,0.906,5.509,0.906c0,0,131.742,0.116,132.063,0.116c0.888,0,3.848-0.125,4.716-1.868
		c0.479-0.962,1.424-1.599,2.494-1.693c0.091-0.008,0.183-0.01,0.271-0.01c0.972,0,1.89,0.461,2.478,1.248
		c4.489,6.015,6.056,11.745,4.661,17.026c-0.412,1.574-1.063,2.971-1.84,4.202c0.186,0.09,0.361,0.194,0.528,0.322
		c4.211,3.162,4.892,8.088,4.603,10.845C249.989,37.632,249.309,42.554,245.096,45.718z"/>
	<path fill="#C1272D" d="M243.243,26.508c-2.44,2.936-5.664,4.343-5.664,4.343l0.025,4.025l-0.025,4.023
		c0,0,3.224,1.409,5.664,4.343c4.179-3.14,3.342-8.364,3.342-8.364S247.422,29.644,243.243,26.508z"/>
	<path fill="#C1272D" d="M-63.029,34.876c0,0-0.835,5.226,3.344,8.364c2.439-2.932,5.662-4.343,5.662-4.343l-0.024-4.021
		l0.024-4.025c0,0-3.223-1.407-5.662-4.343C-63.864,29.644-63.029,34.876-63.029,34.876z"/>
	<g>
		<polygon fill="#C1272D" points="118.538,17.896 118.244,21.033 118.244,31.722 129.577,31.722 130.342,30.698 130.342,21.033 
			129.521,17.896 		"/>
		<polygon fill="#C1272D" points="-34.744,17.896 -35.572,21.033 -35.572,29.993 -24.451,29.993 -23.474,28.125 -23.474,21.033 
			-24.508,17.896 		"/>
		<polygon fill="#C1272D" points="158.518,42.091 166.298,42.091 162.467,27.568 		"/>
		<path fill="#C1272D" d="M235.767,41.57v-6.693v-6.697c0,0,16.273-7.502,3.944-24.025c-2.085,4.186-8.794,3.372-8.794,3.372
			s-124.923,0-131.188,0c-6.269,0-7.73-1.882-7.73-1.882s-1.464,1.882-7.732,1.882c-6.265,0-131.187,0-131.187,0
			s-6.39,0.813-8.478-3.372c-12.322,16.524,4.269,24.025,4.269,24.025v6.697v6.693c0,0-16.591,6.943-4.269,23.469
			c2.088-4.186,8.478-3.935,8.478-3.935s124.922,0,131.187,0c6.267,0,9.194,0,15.462,0c6.262,0,131.187,0,131.187,0
			s6.707-0.251,8.793,3.935C252.04,48.512,235.767,41.57,235.767,41.57z M-14.833,27.096l-1.548,3.66l-5.18,2.804l4.879,2.688
			l1.848,3.775v11.096l-2.698,6.528h-29.054l4.1-6.528V18.687l-4.1-5.977h29.056l2.698,5.921V27.096z M18.004,21.892l-5.391-3.995
			H2.031l0.418,2.68v9.418h3.7l4.941-2.898v12.927L6.15,36.908h-3.7v12.437l-0.305,1.39h10.468l5.391-2.932v9.845h-28.041
			l2.117-6.588V18.687l-2.117-5.977h28.041V21.892z M54.298,18.687v38.958H47.96L31.746,30.531l0.086,3.886v16.641l4.464,6.588
			H22.684l2.236-6.588V18.687l-2.236-5.977h10.408L47.96,39.35l-0.572-4.248V18.685l-2.684-5.976h13.669L54.298,18.687z
			 M88.863,24.749l-5.185-2.858v-3.995h-3.457v33.162l3.999,6.588H68.035l1.815-6.588V17.896h-3.457v3.995l-6.913,2.858V12.711
			h29.38v12.039H88.863z M133.925,57.646l-3.583-6.473v-9.666l-0.705-2.872h-11.393v19.011H106.7l4.631-6.528v-32.43l-4.631-5.977
			h30.427l1.854,5.921v11.038l-1.126,3.717l-4.967,2.746l4.562,2.69l1.534,3.831v8.464l4.607,6.528H133.925z M165.955,57.646
			l2.571-6.52l-0.569-2.122h-11.21l-0.515,2.122l2.572,6.52h-13.557l3.893-6.471l9.264-31.928l-2.631-6.537h12.297l10.183,38.655
			l3.888,6.28H165.955z M199.815,57.646h-16.184l3.743-6.588V18.687l-3.743-5.977h16.239l-2.127,5.977V51.06L199.815,57.646z
			 M230.581,57.646h-27.104l2.909-6.588V18.687l-2.909-5.977h16.242l-2.967,5.977v30.658l-1.096,1.39h9.211l5.711-2.932v9.843
			H230.581z"/>
		<polygon fill="#C1272D" points="-35.572,36.906 -35.572,48.886 -34.575,50.733 -24.394,50.733 -23.474,48.886 -23.474,38.934 
			-24.394,36.906 		"/>
	</g>
</g>
</svg>
