<svg viewBox="0 0 625 625" xmlns="http://www.w3.org/2000/svg" fill-rule="evenodd" clip-rule="evenodd" stroke-linejoin="round" stroke-miterlimit="2"><g><path d="M78.125 480.848h13.352l.532-10.413h13.885v10.413h10.413v-10.413h13.884v10.413h27.769v-10.413h10.413v10.413h13.885v-10.413h13.884V456.55h13.885v13.885h24.297v-27.769h13.885v-13.884h10.413v-24.298h13.884v13.884h17.356v-13.884h10.413V144.152H168.373v10.413h-27.768v-10.413h-10.414v208.266h-13.884v65.95h-10.413v24.298H92.009v13.884H78.125v24.298z"/><path d="M324.98 145.182h60.389c1.561 0 2.809.479 3.745 1.435.937.956 1.405 2.231 1.405 3.824v329.377H330.13a4.825 4.825 0 01-2.575-.718c-.78-.478-1.405-1.035-1.873-1.673-.468-.637-.702-1.593-.702-2.868V145.182zm29.024 138.157h128.737l16.384-4.303 13.108 62.625H359.154c-.936 0-1.717-.08-2.341-.239a3.452 3.452 0 01-1.638-.956 3.568 3.568 0 01-.937-1.673c-.156-.638-.234-1.434-.234-2.39v-53.064zm192.871 196.479h-60.389a4.827 4.827 0 01-2.575-.718c-.78-.478-1.404-1.035-1.872-1.673-.469-.637-.703-1.593-.703-2.868V145.182h60.39c.936 0 1.716.08 2.34.239.624.16 1.171.479 1.639.957.468.478.78 1.035.936 1.673.156.637.234 1.434.234 2.39v329.377z" fill-rule="nonzero"/></g></svg>
